<mxfile host="app.diagrams.net" modified="2022-11-29T16:24:43.766Z" agent="5.0 (Windows NT 10.0; Win64; x64) AppleWebKit/537.36 (KHTML, like Gecko) Chrome/107.0.0.0 Safari/537.36" version="20.6.0" etag="9xlfTmM-FDnkoREobopK" type="github">
  <diagram id="DgoHER3vz_Djj63LoZmz" name="Page-1">
    <mxGraphModel dx="541" dy="578" grid="1" gridSize="10" guides="1" tooltips="1" connect="1" arrows="1" fold="1" page="1" pageScale="1" pageWidth="827" pageHeight="1169" math="0" shadow="0">
      <root>
        <mxCell id="0" />
        <mxCell id="1" parent="0" />
        <mxCell id="WWT3XCdUetFxjlRaLe9F-1" value="" style="ellipse;html=1;shape=startState;fillColor=#000000;strokeColor=#ff0000;" vertex="1" parent="1">
          <mxGeometry x="185" y="10" width="30" height="30" as="geometry" />
        </mxCell>
        <mxCell id="WWT3XCdUetFxjlRaLe9F-2" value="" style="edgeStyle=orthogonalEdgeStyle;html=1;verticalAlign=bottom;endArrow=open;endSize=8;strokeColor=#ff0000;rounded=0;" edge="1" source="WWT3XCdUetFxjlRaLe9F-1" parent="1">
          <mxGeometry relative="1" as="geometry">
            <mxPoint x="200" y="100" as="targetPoint" />
          </mxGeometry>
        </mxCell>
        <mxCell id="WWT3XCdUetFxjlRaLe9F-3" value="Open the web app" style="rounded=1;whiteSpace=wrap;html=1;arcSize=40;fontColor=#000000;fillColor=#ffffc0;strokeColor=#ff0000;" vertex="1" parent="1">
          <mxGeometry x="140" y="100" width="120" height="40" as="geometry" />
        </mxCell>
        <mxCell id="WWT3XCdUetFxjlRaLe9F-4" value="" style="edgeStyle=orthogonalEdgeStyle;html=1;verticalAlign=bottom;endArrow=open;endSize=8;strokeColor=#ff0000;rounded=0;" edge="1" source="WWT3XCdUetFxjlRaLe9F-3" parent="1">
          <mxGeometry relative="1" as="geometry">
            <mxPoint x="200" y="200" as="targetPoint" />
          </mxGeometry>
        </mxCell>
        <mxCell id="WWT3XCdUetFxjlRaLe9F-5" value="Login" style="rounded=1;whiteSpace=wrap;html=1;arcSize=40;fontColor=#000000;fillColor=#ffffc0;strokeColor=#ff0000;" vertex="1" parent="1">
          <mxGeometry x="140" y="300" width="120" height="40" as="geometry" />
        </mxCell>
        <mxCell id="WWT3XCdUetFxjlRaLe9F-6" value="" style="edgeStyle=orthogonalEdgeStyle;html=1;verticalAlign=bottom;endArrow=open;endSize=8;strokeColor=#ff0000;rounded=0;" edge="1" source="WWT3XCdUetFxjlRaLe9F-5" parent="1">
          <mxGeometry relative="1" as="geometry">
            <mxPoint x="200" y="400" as="targetPoint" />
          </mxGeometry>
        </mxCell>
        <mxCell id="WWT3XCdUetFxjlRaLe9F-7" value="Register" style="rounded=1;whiteSpace=wrap;html=1;arcSize=40;fontColor=#000000;fillColor=#ffffc0;strokeColor=#ff0000;" vertex="1" parent="1">
          <mxGeometry x="300" y="300" width="120" height="40" as="geometry" />
        </mxCell>
        <mxCell id="WWT3XCdUetFxjlRaLe9F-8" value="" style="edgeStyle=orthogonalEdgeStyle;html=1;verticalAlign=bottom;endArrow=open;endSize=8;strokeColor=#ff0000;rounded=0;" edge="1" source="WWT3XCdUetFxjlRaLe9F-7" parent="1">
          <mxGeometry relative="1" as="geometry">
            <mxPoint x="360" y="400" as="targetPoint" />
          </mxGeometry>
        </mxCell>
        <mxCell id="WWT3XCdUetFxjlRaLe9F-9" value="User have account ?" style="rhombus;whiteSpace=wrap;html=1;fillColor=#ffffc0;strokeColor=#ff0000;" vertex="1" parent="1">
          <mxGeometry x="150" y="200" width="100" height="70" as="geometry" />
        </mxCell>
        <mxCell id="WWT3XCdUetFxjlRaLe9F-10" value="no" style="edgeStyle=orthogonalEdgeStyle;html=1;align=left;verticalAlign=bottom;endArrow=open;endSize=8;strokeColor=#ff0000;rounded=0;entryX=0.5;entryY=0;entryDx=0;entryDy=0;" edge="1" source="WWT3XCdUetFxjlRaLe9F-9" parent="1" target="WWT3XCdUetFxjlRaLe9F-7">
          <mxGeometry x="-1" relative="1" as="geometry">
            <mxPoint x="340" y="235" as="targetPoint" />
          </mxGeometry>
        </mxCell>
        <mxCell id="WWT3XCdUetFxjlRaLe9F-11" value="yes" style="edgeStyle=orthogonalEdgeStyle;html=1;align=left;verticalAlign=top;endArrow=open;endSize=8;strokeColor=#ff0000;rounded=0;" edge="1" source="WWT3XCdUetFxjlRaLe9F-9" parent="1">
          <mxGeometry x="-1" relative="1" as="geometry">
            <mxPoint x="200" y="300" as="targetPoint" />
          </mxGeometry>
        </mxCell>
      </root>
    </mxGraphModel>
  </diagram>
</mxfile>
